<svg width="435" height="415" viewBox="0 0 435 415" fill="none" xmlns="http://www.w3.org/2000/svg">
<rect y="295" width="50" height="120" rx="10" fill="#B12D2D"/>
<rect x="73" y="195" width="50" height="220" rx="10" fill="#B12D2D"/>
<rect x="312" y="95" width="50" height="320" rx="10" fill="#B12D2D"/>
<rect x="385" width="50" height="415" rx="10" fill="#B12D2D"/>
<line x1="269" y1="356" x2="164" y2="356" stroke="white" stroke-width="10"/>
<line x1="252" y1="295" x2="183" y2="295" stroke="white" stroke-width="10"/>
<line x1="218.771" y1="191.495" x2="150.771" y2="408.495" stroke="white" stroke-width="10"/>
<line x1="216.785" y1="189.551" x2="282.785" y2="407.551" stroke="white" stroke-width="10"/>
<circle cx="218" cy="191" r="15" fill="white"/>
<path d="M247.552 160.448C251.499 164.394 254.629 169.08 256.765 174.236C258.901 179.392 260 184.919 260 190.5C260 196.081 258.901 201.608 256.765 206.764C254.629 211.92 251.499 216.606 247.552 220.552L244.547 217.547C248.099 213.995 250.916 209.778 252.838 205.138C254.761 200.497 255.75 195.523 255.75 190.5C255.75 185.477 254.761 180.503 252.838 175.862C250.916 171.222 248.099 167.005 244.547 163.453L247.552 160.448Z" fill="white"/>
<path d="M187.448 220.552C183.501 216.606 180.371 211.92 178.235 206.764C176.099 201.608 175 196.081 175 190.5C175 184.919 176.099 179.392 178.235 174.236C180.371 169.08 183.502 164.394 187.448 160.448L190.453 163.453C186.901 167.005 184.084 171.222 182.162 175.862C180.239 180.503 179.25 185.477 179.25 190.5C179.25 195.523 180.239 200.497 182.162 205.138C184.084 209.778 186.901 213.995 190.453 217.547L187.448 220.552Z" fill="white"/>
<path d="M258.159 149.841C268.815 160.498 274.862 174.912 274.998 189.981C275.134 205.051 269.348 219.572 258.886 230.418L254.747 226.427C264.163 216.664 269.37 203.596 269.248 190.033C269.126 176.47 263.683 163.498 254.093 153.907L258.159 149.841Z" fill="white"/>
<path d="M176.841 231.159C166.185 220.502 160.138 206.088 160.002 191.019C159.866 175.949 165.652 161.428 176.114 150.582L180.253 154.573C170.837 164.336 165.63 177.404 165.752 190.967C165.874 204.53 171.317 217.502 180.907 227.093L176.841 231.159Z" fill="white"/>
<path d="M271.033 137.967C277.997 144.931 283.522 153.199 287.291 162.299C291.06 171.398 293 181.151 293 191C293 200.849 291.06 210.602 287.291 219.701C283.522 228.801 277.997 237.069 271.033 244.033L265.73 238.73C271.998 232.462 276.97 225.021 280.362 216.831C283.754 208.642 285.5 199.864 285.5 191C285.5 182.136 283.754 173.358 280.362 165.169C276.97 156.979 271.998 149.538 265.73 143.27L271.033 137.967Z" fill="white"/>
<path d="M164.967 244.033C158.003 237.069 152.478 228.801 148.709 219.701C144.94 210.602 143 200.849 143 191C143 181.151 144.94 171.398 148.709 162.299C152.478 153.199 158.003 144.931 164.967 137.967L170.27 143.27C164.002 149.538 159.03 156.979 155.638 165.169C152.246 173.358 150.5 182.136 150.5 191C150.5 199.864 152.246 208.642 155.638 216.831C159.03 225.021 164.002 232.462 170.27 238.73L164.967 244.033Z" fill="white"/>
<rect x="146" y="405" width="142" height="10" rx="2" fill="white"/>
</svg>
