<svg width="512" height="512" viewBox="0 0 512 512" fill="none" xmlns="http://www.w3.org/2000/svg">
<path d="M292.583 121.382C298.465 126.535 303.158 132.903 306.337 140.048C309.515 147.192 311.105 154.941 310.995 162.76C310.885 170.579 309.078 178.281 305.699 185.333C302.32 192.384 297.45 198.618 291.426 203.604L285.013 195.854C289.916 191.798 293.878 186.725 296.628 180.986C299.377 175.248 300.847 168.981 300.937 162.619C301.027 156.256 299.733 149.95 297.147 144.137C294.56 138.323 290.741 133.141 285.955 128.948L292.583 121.382Z" fill="white"/>
<path d="M222.904 203.874C216.84 198.937 211.921 192.741 208.487 185.716C205.052 178.691 203.185 171.004 203.013 163.187C202.841 155.369 204.369 147.607 207.492 140.438C210.614 133.269 215.256 126.863 221.097 121.664L227.785 129.178C223.032 133.408 219.254 138.621 216.714 144.454C214.173 150.288 212.929 156.604 213.069 162.966C213.209 169.327 214.729 175.582 217.523 181.299C220.318 187.015 224.321 192.057 229.255 196.074L222.904 203.874Z" fill="white"/>
<path d="M309.576 227.475C320.283 219.821 328.967 209.913 334.942 198.531C340.916 187.15 344.017 174.608 344 161.895C343.983 149.183 340.848 136.648 334.843 125.281C328.838 113.914 320.127 104.027 309.399 96.3992L303.346 104.051C312.823 110.788 320.517 119.523 325.822 129.564C331.127 139.605 333.896 150.678 333.911 161.907C333.926 173.137 331.187 184.217 325.909 194.271C320.632 204.324 312.961 213.077 303.502 219.838L309.576 227.475Z" fill="white"/>
<path d="M206.639 95.6729C195.792 103.148 186.926 112.911 180.743 124.192C174.56 135.473 171.228 147.962 171.011 160.673C170.794 173.384 173.698 185.968 179.492 197.433C185.287 208.897 193.814 218.928 204.4 226.731L210.594 219.182C201.242 212.288 193.71 203.427 188.591 193.3C183.472 183.173 180.907 172.056 181.099 160.827C181.291 149.599 184.234 138.567 189.696 128.602C195.158 118.637 202.989 110.012 212.571 103.409L206.639 95.6729Z" fill="white"/>
<path d="M329.052 72.5115C343.371 83.0843 354.961 96.667 362.928 112.211C370.895 127.755 375.025 144.844 375 162.159C374.974 179.475 370.794 196.553 362.781 212.075C354.769 227.597 343.138 241.149 328.788 251.683L322.228 243.487C335.267 233.916 345.834 221.603 353.115 207.499C360.395 193.395 364.193 177.878 364.217 162.145C364.24 146.412 360.487 130.884 353.248 116.761C346.009 102.637 335.478 90.296 322.467 80.6893L329.052 72.5115Z" fill="white"/>
<path d="M185.25 251.71C170.895 241.182 159.259 227.635 151.24 212.115C143.22 196.596 139.033 179.52 139 162.204C138.967 144.889 143.09 127.798 151.051 112.251C159.011 96.7045 170.596 83.1173 184.911 72.539L191.499 80.7144C178.492 90.326 167.966 102.671 160.733 116.798C153.5 130.924 149.754 146.453 149.784 162.186C149.813 177.919 153.618 193.435 160.904 207.536C168.191 221.637 178.763 233.946 191.806 243.512L185.25 251.71Z" fill="white"/>
<circle cx="257" cy="162" r="15" fill="white"/>
<path d="M256 89.0001C258.658 89.0001 260.934 88.0536 262.827 86.1605C264.72 84.2674 265.667 81.9917 265.667 79.3334C265.667 76.6751 264.72 74.3994 262.827 72.5063C260.934 70.6133 258.658 69.6667 256 69.6667C253.342 69.6667 251.066 70.6133 249.173 72.5063C247.28 74.3994 246.333 76.6751 246.333 79.3334C246.333 81.9917 247.28 84.2674 249.173 86.1605C251.066 88.0536 253.342 89.0001 256 89.0001ZM256 137.333C243.031 126.297 233.344 116.047 226.94 106.581C220.535 97.116 217.333 88.3556 217.333 80.3001C217.333 68.2167 221.22 58.5904 228.994 51.4209C236.767 44.2515 245.769 40.6667 256 40.6667C266.231 40.6667 275.233 44.2515 283.006 51.4209C290.78 58.5904 294.667 68.2167 294.667 80.3001C294.667 88.3556 291.465 97.116 285.06 106.581C278.656 116.047 268.969 126.297 256 137.333Z" fill="white"/>
<line x1="154.279" y1="458.352" x2="258.279" y2="160.352" stroke="white" stroke-width="10"/>
<line x1="360.274" y1="458.634" x2="258.275" y2="163.634" stroke="white" stroke-width="10"/>
<line x1="156.274" y1="455.808" x2="319.274" y2="349.808" stroke="white" stroke-width="10"/>
<line x1="359.304" y1="456.211" x2="195.304" y2="351.211" stroke="white" stroke-width="10"/>
<line x1="195.255" y1="345.821" x2="297.255" y2="278.821" stroke="white" stroke-width="10"/>
<line x1="321.255" y1="346.179" x2="219.255" y2="279.179" stroke="white" stroke-width="10"/>
<line x1="220.598" y1="275.336" x2="276.598" y2="223.336" stroke="white" stroke-width="10"/>
<line x1="296.655" y1="277.716" x2="236.655" y2="223.716" stroke="white" stroke-width="10"/>
</svg>
