<svg width="422" height="422" viewBox="0 0 422 422" fill="none" xmlns="http://www.w3.org/2000/svg">
<path d="M422 211C422 327.532 327.532 422 211 422C94.4679 422 0 327.532 0 211C0 94.4679 94.4679 0 211 0C327.532 0 422 94.4679 422 211ZM47.2811 211C47.2811 301.419 120.581 374.719 211 374.719C301.419 374.719 374.719 301.419 374.719 211C374.719 120.581 301.419 47.2811 211 47.2811C120.581 47.2811 47.2811 120.581 47.2811 211Z" fill="black"/>
<rect x="375.395" y="10" width="50" height="50" transform="rotate(45.0639 375.395 10)" fill="black"/>
<rect x="45.3948" y="11" width="50" height="50" transform="rotate(45.0639 45.3948 11)" fill="black"/>
<rect x="45.3948" y="341" width="50" height="50" transform="rotate(45.0639 45.3948 341)" fill="black"/>
<rect x="375.395" y="341" width="50" height="50" transform="rotate(45.0639 375.395 341)" fill="black"/>
<rect x="83" y="222" width="44" height="59" rx="16" fill="#54E0ED"/>
<rect x="149" y="195" width="44" height="86" rx="16" fill="#54E0ED"/>
<rect x="214" y="161" width="44" height="120" rx="16" fill="#54E0ED"/>
<rect x="280" y="128" width="44" height="153" rx="16" fill="#54E0ED"/>
</svg>
